# xmcd
#
# Track frame offsets:
#	182
#	5642
#	24072
#	41517
#	66012
#	84965
#	110702
#	129067
#	146377
#	172475
#	206882
#	221955
#	243812
#	259577
#
# Disc length: 3871 seconds
#
# Revision: 6
# Processed by: cddbd v1.5.2PL0 Copyright (c) Steve Scherf et al.
# Submitted via: VUPlayer 2.49
#
DISCID=c00f1d0e
DTITLE=Origins - De l'origine de l'Homme
DYEAR=1994
DGENRE=New Age
TTITLE0=Serge Perathoner and Jannick Top - Okavango
TTITLE1=Ensemble Georgika - Ts'ints'karo
TTITLE2=Vox - O Successores Fortissimi Leonis
TTITLE3=Bielka Nemirovski - Akh Ti No Tchenka
TTITLE4=Sarband - Polorum Regina
TTITLE5=Vox - Umzuj
TTITLE6=Frederick Rousseau - The Prayer
TTITLE7=Trinovox - Shir Hashirim
TTITLE8=Sarband - Cuncti Simus
TTITLE9=Huun Huur Tu and The Bulgarian Voices Angelite - Legend
TTITLE10=Irèn Lovasz - Hej, Revesz Revesz
TTITLE11=Sven Grünberg - Hermitage
TTITLE12=Kirile Loo - Igatsus
TTITLE13=Patrick Bernhardt - The Appeal of Cosmic Cathedrals
EXTD=
EXTT0=
EXTT1=
EXTT2=
EXTT3=
EXTT4=
EXTT5=
EXTT6=
EXTT7=
EXTT8=
EXTT9=
EXTT10=
EXTT11=
EXTT12=
EXTT13=
PLAYORDER=
